<svg width="162" height="53" viewBox="0 0 162 53" fill="none" xmlns="http://www.w3.org/2000/svg">
<path d="M11.165 34.065L1.925 25.875L11.165 17.65H13.16L3.92 25.875L13.16 34.065H11.165ZM36.6784 15.76V26.015H46.4784V27.345H36.6784V37.67H47.5284V39H35.1034V14.43H47.5284V15.76H36.6784ZM59.5408 21.395H54.6058V39H53.0308V21.395H50.1608V19.995H53.0308V18.665C53.0308 16.6817 53.5324 15.2117 54.5358 14.255C55.5391 13.275 57.1841 12.785 59.4708 12.785V14.185C57.6508 14.185 56.3791 14.535 55.6558 15.235C54.9558 15.935 54.6058 17.0783 54.6058 18.665V19.995H59.5408V21.395ZM70.8201 21.395H65.8851V39H64.3101V21.395H61.4401V19.995H64.3101V18.665C64.3101 16.6817 64.8117 15.2117 65.8151 14.255C66.8184 13.275 68.4634 12.785 70.7501 12.785V14.185C68.9301 14.185 67.6584 14.535 66.9351 15.235C66.2351 15.935 65.8851 17.0783 65.8851 18.665V19.995H70.8201V21.395ZM75.6594 15.76C75.286 15.76 74.971 15.6433 74.7144 15.41C74.4577 15.1533 74.3294 14.815 74.3294 14.395C74.3294 13.9983 74.4577 13.6717 74.7144 13.415C74.971 13.1583 75.286 13.03 75.6594 13.03C76.0327 13.03 76.3477 13.1583 76.6044 13.415C76.861 13.6717 76.9894 13.9983 76.9894 14.395C76.9894 14.815 76.861 15.1533 76.6044 15.41C76.3477 15.6433 76.0327 15.76 75.6594 15.76ZM76.4294 19.995V39H74.8544V19.995H76.4294ZM141.281 17.65H143.276L152.516 25.875L143.276 34.065H141.281L150.521 25.875L141.281 17.65Z" fill="black"/>
<path d="M92.458 14.43V33.505C92.458 35.2083 91.933 36.5967 90.883 37.67C89.833 38.72 88.4097 39.245 86.613 39.245C84.723 39.245 83.2297 38.6733 82.133 37.53C81.0597 36.3633 80.523 34.765 80.523 32.735H82.098C82.098 34.2283 82.4597 35.4533 83.183 36.41C83.9063 37.3667 85.0497 37.845 86.613 37.845C88.1063 37.845 89.1797 37.425 89.833 36.585C90.5097 35.7217 90.848 34.695 90.848 33.505V14.43H92.458ZM115.519 28.22C115.519 29.06 115.496 29.69 115.449 30.11H99.0342C99.0808 31.8133 99.4542 33.2483 100.154 34.415C100.854 35.5817 101.776 36.4567 102.919 37.04C104.063 37.6233 105.311 37.915 106.664 37.915C108.531 37.915 110.094 37.46 111.354 36.55C112.614 35.6167 113.408 34.3567 113.734 32.77H115.379C115.006 34.7067 114.049 36.2817 112.509 37.495C110.969 38.685 109.021 39.28 106.664 39.28C104.891 39.28 103.304 38.8833 101.904 38.09C100.504 37.2967 99.4075 36.165 98.6142 34.695C97.8208 33.2017 97.4242 31.4633 97.4242 29.48C97.4242 27.4967 97.8092 25.77 98.5792 24.3C99.3725 22.83 100.469 21.71 101.869 20.94C103.269 20.1467 104.868 19.75 106.664 19.75C108.484 19.75 110.059 20.1467 111.389 20.94C112.743 21.71 113.769 22.7483 114.469 24.055C115.169 25.3383 115.519 26.7267 115.519 28.22ZM113.944 28.815C114.014 27.135 113.711 25.7117 113.034 24.545C112.381 23.3783 111.483 22.515 110.339 21.955C109.196 21.3717 107.959 21.08 106.629 21.08C105.299 21.08 104.063 21.3717 102.919 21.955C101.799 22.515 100.878 23.3783 100.154 24.545C99.4542 25.7117 99.0808 27.135 99.0342 28.815H113.944ZM128.854 19.61C131.118 19.61 132.961 20.31 134.384 21.71C135.808 23.0867 136.519 25.14 136.519 27.87V39H134.979V27.975C134.979 25.7117 134.408 23.985 133.264 22.795C132.121 21.5817 130.569 20.975 128.609 20.975C126.556 20.975 124.911 21.6283 123.674 22.935C122.461 24.2417 121.854 26.1783 121.854 28.745V39H120.279V19.995H121.854V24.02C122.391 22.5967 123.278 21.5117 124.514 20.765C125.774 19.995 127.221 19.61 128.854 19.61Z" fill="#436BFB"/>
<path fill-rule="evenodd" clip-rule="evenodd" d="M16 39L24.6538 14H26.2412L17.5873 39H16Z" fill="black"/>
</svg>
